<svg xmlns="http://www.w3.org/2000/svg" width="1200" height="630" viewBox="0 0 1200 630" role="img" aria-labelledby="title description">
  <title id="title">Весёлая расчёска</title>
  <desc id="description">Стрижка «Хит» по цене обычной для клиентов «Х»</desc>
  <defs>
    <linearGradient id="background" x1="0" y1="0" x2="1" y2="1">
      <stop offset="0" stop-color="#fed7aa" />
      <stop offset="0.56" stop-color="#fef3c7" />
      <stop offset="1" stop-color="#fde68a" />
    </linearGradient>
    <filter id="shadow" x="-30%" y="-30%" width="160%" height="160%">
      <feDropShadow dx="0" dy="18" stdDeviation="18" flood-color="#be185d" flood-opacity="0.2" />
    </filter>
  </defs>
  <rect width="1200" height="630" fill="url(#background)" />
  <circle cx="1110" cy="82" r="190" fill="#f472b6" opacity="0.28" />
  <circle cx="54" cy="600" r="220" fill="#38bdf8" opacity="0.24" />
  <g transform="translate(72 68)">
    <rect width="72" height="72" rx="24" fill="#db2777" />
    <path d="M24 25l25 25M49 25L24 50M28 31a7 7 0 1 1-10-10 7 7 0 0 1 10 10Zm28 28a7 7 0 1 1-10-10 7 7 0 0 1 10 10Z" fill="none" stroke="#fff" stroke-width="4" stroke-linecap="round" />
    <text x="94" y="32" font-family="Arial, sans-serif" font-size="27" font-weight="800" fill="#be185d">Весёлая расчёска</text>
    <text x="94" y="59" font-family="Arial, sans-serif" font-size="18" font-weight="500" fill="#64748b">Детская парикмахерская</text>
  </g>
  <g transform="translate(72 212)">
    <rect width="430" height="42" rx="21" fill="#fff" opacity="0.92" />
    <text x="24" y="27" font-family="Arial, sans-serif" font-size="15" font-weight="800" letter-spacing="1.6" fill="#be185d">ДЛЯ КЛИЕНТОВ «Х»</text>
    <text x="0" y="115" font-family="Arial, sans-serif" font-size="60" font-weight="900" fill="#020617">Стрижка «Хит»</text>
    <text x="0" y="183" font-family="Arial, sans-serif" font-size="60" font-weight="900" fill="#020617">по цене обычной</text>
    <text x="2" y="239" font-family="Arial, sans-serif" font-size="24" font-weight="500" fill="#475569">Бережно к ребёнку. Спокойно для родителей.</text>
  </g>
  <g transform="translate(930 330)" filter="url(#shadow)">
    <circle r="138" fill="#fff" opacity="0.9" />
    <circle r="104" fill="#38bdf8" />
    <path d="M-35-36 38 37M38-36-35 37M-24-25a24 24 0 1 1-34-34 24 24 0 0 1 34 34Zm82 82a24 24 0 1 1-34-34 24 24 0 0 1 34 34Z" fill="none" stroke="#fff" stroke-width="10" stroke-linecap="round" />
  </g>
</svg>
